<svg width="210" height="268" viewBox="0 0 210 268" fill="none" xmlns="http://www.w3.org/2000/svg">
<path d="M127.392 0.697525L120.826 38.2586H83.9214L50.169 228.822H87.3361L80.7695 266.383H0L46.7543 0.697525H127.392Z" fill="#313BAC"/>
<path d="M178.349 169.722C177.561 173.925 177.036 181.411 176.642 192.18C176.379 205.576 175.591 215.295 174.54 221.467C172.045 235.914 165.61 247.209 155.234 255.22C144.859 263.231 132.251 267.302 117.017 267.302H99.5494L106.116 229.741H114.915C124.371 229.741 129.756 225.407 131.201 216.739C131.857 212.931 132.514 205.576 133.039 194.807C133.171 192.968 133.433 189.028 133.827 182.987C134.221 176.946 134.747 171.955 135.666 167.884C137.242 158.953 140.657 151.467 145.778 145.689C150.9 139.91 157.992 136.101 166.792 134.525V134C153.396 131.373 146.698 123.099 146.698 109.178C146.698 106.552 146.96 103.662 147.354 100.642C148.405 94.2063 150.769 85.0131 154.446 72.9305C156.022 67.6772 157.467 62.8179 158.518 58.2212C159.568 53.6246 160.225 50.21 160.225 48.1086C160.225 44.9567 159.306 42.5927 157.336 41.0167C155.497 39.4407 152.345 38.6527 148.142 38.6527H139.606L146.435 1.22296H163.902C177.167 1.22296 187.542 4.37494 195.159 10.5476C202.777 16.7202 206.454 25.6508 206.454 37.0767C206.454 38.9154 206.191 42.33 205.535 47.058C204.484 53.0993 201.726 62.5552 197.523 75.6885C193.846 86.589 191.745 94.3377 190.957 99.0656C190.694 100.904 190.431 102.218 190.431 102.874C190.431 106.946 192.007 110.098 195.159 112.068C198.311 114.169 203.302 115.22 210 115.351L203.433 152.912C188.462 153.437 180.056 158.953 178.349 169.722Z" fill="#313BAC"/>
</svg>
